<svg width="24" height="24" viewBox="0 0 24 24" fill="none" xmlns="http://www.w3.org/2000/svg">
<path fill-rule="evenodd" clip-rule="evenodd" d="M13.0001 2.05078C12.2212 1.97051 11.8102 1.97483 11.0001 2.05078V13L9 11L7 12L12 17L17 12L15 11L13.0001 13V2.05078ZM2 11.9994C2 7.39312 5.10134 3.52233 9.33333 2.35766V4.45661C6.22973 5.55765 4 8.52385 4 11.9994C4 16.4094 7.59 19.9994 12 19.9994C16.41 19.9994 20 16.4094 20 11.9994C20 8.52385 17.7703 5.55765 14.6667 4.45661V2.35766C18.8987 3.52233 22 7.39312 22 11.9994C22 17.5294 17.53 21.9994 12 21.9994C6.47 21.9994 2 17.5294 2 11.9994Z" fill="#2E6692"/>
</svg>
