<svg width="24" height="24" viewBox="0 0 24 24" fill="none" xmlns="http://www.w3.org/2000/svg">
<path d="M22 7.33333V14.3333C22 15.6167 21.1 16.6667 20 16.6667H19V14.3333H20V7.33333H4V14.3333H10V16.6667H4C2.9 16.6667 2 15.6167 2 14.3333V7.33333C2 6.05 2.9 5 4 5H20C21.1 5 22 6.05 22 7.33333ZM14.5 19L15.59 16.1883L18 14.9167L15.59 13.645L14.5 10.8333L13.41 13.645L11 14.9167L13.41 16.1883L14.5 19ZM17 13.1667L17.62 11.5567L19 10.8333L17.62 10.11L17 8.5L16.38 10.11L15 10.8333L16.38 11.5567L17 13.1667ZM14.5 19L15.59 16.1883L18 14.9167L15.59 13.645L14.5 10.8333L13.41 13.645L11 14.9167L13.41 16.1883L14.5 19ZM17 13.1667L17.62 11.5567L19 10.8333L17.62 10.11L17 8.5L16.38 10.11L15 10.8333L16.38 11.5567L17 13.1667Z" fill="#F18A1F"/>
</svg>
