<svg width="24" height="24" viewBox="0 0 24 24" fill="none" xmlns="http://www.w3.org/2000/svg">
<path fill-rule="evenodd" clip-rule="evenodd" d="M5 4H19C20.1 4 21 4.9 21 6V18C21 19.1 20.1 20 19 20H5C3.89 20 3 19.1 3 18V6C3 4.9 3.89 4 5 4ZM5.81641 15V12.9961H6.84375C7.51823 12.9961 8.04557 12.8359 8.42578 12.5156C8.80859 12.1927 9 11.7526 9 11.1953C9 10.8281 8.91276 10.5013 8.73828 10.2148C8.5638 9.92578 8.3138 9.70312 7.98828 9.54688C7.66536 9.39062 7.29036 9.3125 6.86328 9.3125H4.64453V15H5.81641ZM6.86328 12.0469H5.81641V10.2617H6.89062C7.17969 10.2669 7.40625 10.3555 7.57031 10.5273C7.73438 10.6992 7.81641 10.9245 7.81641 11.2031C7.81641 11.474 7.73438 11.6823 7.57031 11.8281C7.40885 11.974 7.17318 12.0469 6.86328 12.0469ZM10.9805 12.918H11.9141L12.9805 15H14.2383V14.9453L13.0078 12.6211C13.349 12.4674 13.6029 12.2617 13.7695 12.0039C13.9388 11.7435 14.0234 11.4193 14.0234 11.0312C14.0234 10.4844 13.8411 10.0612 13.4766 9.76172C13.112 9.46224 12.5938 9.3125 11.9219 9.3125H9.80859V15H10.9805V12.918ZM11.9258 11.9688H10.9805V10.2617H11.9219C12.237 10.2617 12.4701 10.3385 12.6211 10.4922C12.7747 10.6458 12.8516 10.8568 12.8516 11.125C12.8516 11.388 12.7708 11.5951 12.6094 11.7461C12.4479 11.8945 12.2201 11.9688 11.9258 11.9688ZM18.5234 14.8711C18.9089 14.7305 19.207 14.5339 19.418 14.2812V12.0117H17.1797V12.875H18.2461V13.8555C18.0586 14.043 17.7448 14.1367 17.3047 14.1367C16.8672 14.1367 16.5352 13.9844 16.3086 13.6797C16.082 13.375 15.9688 12.9245 15.9688 12.3281V11.9648C15.9714 11.3737 16.0768 10.9284 16.2852 10.6289C16.4935 10.3294 16.7969 10.1797 17.1953 10.1797C17.5078 10.1797 17.7526 10.2552 17.9297 10.4062C18.1094 10.5573 18.2253 10.7956 18.2773 11.1211H19.418C19.3477 10.5065 19.1224 10.0391 18.7422 9.71875C18.362 9.39583 17.8346 9.23438 17.1602 9.23438C16.6758 9.23438 16.2526 9.34505 15.8906 9.56641C15.5312 9.78516 15.2552 10.1029 15.0625 10.5195C14.8724 10.9336 14.7773 11.4245 14.7773 11.9922V12.3789C14.7826 12.931 14.8854 13.4115 15.0859 13.8203C15.2891 14.2292 15.5755 14.5417 15.9453 14.7578C16.3177 14.9714 16.75 15.0781 17.2422 15.0781C17.7109 15.0781 18.138 15.0091 18.5234 14.8711Z" fill="#333333"/>
</svg>
