<svg width="24" height="24" viewBox="0 0 24 24" fill="none" xmlns="http://www.w3.org/2000/svg">
<path fill-rule="evenodd" clip-rule="evenodd" d="M10.9999 21.9414C11.7788 22.0217 12.1898 22.0174 12.9999 21.9414V10.9922L15 12.9922L17 11.9922L12 6.99218L7 11.9922L9 12.9922L10.9999 10.9922V21.9414ZM22 11.9928C22 16.5991 18.8987 20.4699 14.6667 21.6345V19.5356C17.7703 18.4345 20 15.4683 20 11.9928C20 7.58283 16.41 3.99283 12 3.99283C7.59 3.99283 4 7.58283 4 11.9928C4 15.4683 6.22973 18.4345 9.33333 19.5356V21.6345C5.10134 20.4699 2 16.5991 2 11.9928C2 6.46283 6.47 1.99283 12 1.99283C17.53 1.99283 22 6.46283 22 11.9928Z" fill="#F18A1F"/>
</svg>
