<svg width="47" height="47" viewBox="0 0 47 47" fill="none" xmlns="http://www.w3.org/2000/svg">
<g clip-path="url(#clip0)">
<rect x="2.84679" y="5.21901" width="16.7409" height="13.5007" fill="white"/>
<rect x="26.4063" y="4.46297" width="16.7409" height="14.2568" fill="white"/>
<rect x="26.4063" y="26.9282" width="15.4397" height="15.5529" fill="white"/>
<rect x="5.34515" y="25.9562" width="14.2426" height="15.5529" fill="white"/>
<path d="M8.73424 22.2917C5.41353 21.5691 2.51714 19.2608 0.980023 16.1119C-0.2711 12.8488 -0.357472 9.28875 0.985118 6.52506C4.83268 -1.35805 15.558 -2.20533 20.4465 4.98764C22.2038 7.57323 22.4248 8.82591 22.4248 16.1988V22.6787L16.3754 22.6584C12.3034 22.6447 9.80569 22.5249 8.73432 22.2917H8.73424ZM18.3722 17.866C18.8106 17.3233 18.8588 16.8116 18.8588 12.6989C18.8588 7.16664 18.8333 7.11351 16.1843 7.11351C14.5881 7.11351 14.5286 7.09062 14.5286 6.47559C14.5286 5.96526 14.4013 5.83768 13.8919 5.83768C13.3824 5.83768 13.2551 5.96526 13.2551 6.47559C13.2551 7.09061 13.1957 7.11351 11.5995 7.11351C9.9913 7.11351 9.94382 7.09471 9.94382 6.45785C9.94382 5.92385 9.83747 5.81732 9.37071 5.88373C9.0024 5.93613 8.76853 6.17043 8.71621 6.53939C8.64198 7.06314 8.49847 7.11351 7.08064 7.11351C4.57985 7.11351 4.59485 7.0795 4.59485 12.7482L4.75405 16.8548C4.97539 17.8378 5.14333 18.0716 5.30494 18.2166C5.76322 18.6251 6.1807 18.6188 11.9276 18.545C17.8394 18.469 17.8895 18.4637 18.3723 17.866H18.3722ZM5.62517 17.0865C5.47878 16.8124 5.35899 15.4324 5.35899 14.0198V11.4513H11.6075H17.8561L17.7843 14.4496L17.7125 17.4478L11.8019 17.5162C6.16266 17.5815 5.87912 17.5618 5.62517 17.0865ZM7.90612 13.1099V11.9617H6.88727H5.86842V13.1099V14.2582H6.88727H7.90612V13.1099ZM12.7457 13.1178V11.9981H10.4532H8.16083V13.1142V14.2302L10.4532 14.2339L12.7457 14.2375V13.1178ZM17.5852 13.0953V12.0612L15.2775 12.0783L15.2635 14.2582H16.4243H17.5852L17.5852 13.0953Z" fill="#F18A1F"/>
<path d="M32.0065 45.8702C29.2378 45.219 25.7966 42.3596 24.5813 39.7003C23.6112 37.5775 23.4436 36.0802 23.4436 29.5333V23.4442H29.6305C36.1757 23.4442 37.4521 23.607 39.8843 24.7523C43.4698 26.4407 46.1189 30.7656 46.11 34.9165C46.099 40.0093 42.3471 44.7465 37.4236 45.8835C36.0732 46.1954 33.361 46.1887 32.0065 45.8702ZM31.0781 39.3906C32.125 37.7775 33.0491 36.4577 33.1316 36.4577C33.2141 36.4577 33.5358 36.8021 33.8465 37.2232C34.1573 37.6442 34.5119 37.9887 34.6346 37.9887C34.7572 37.9887 35.8141 36.4373 36.983 34.5412C39.0398 31.205 39.122 31.1103 39.5313 31.6068C39.7639 31.889 40.0034 32.1198 40.0634 32.1198C40.2101 32.1198 40.8483 27.7813 40.7204 27.6532C40.6651 27.5978 39.7688 28.1455 38.7286 28.8703C37.08 30.0191 36.9114 30.2057 37.4148 30.3247C37.7324 30.3998 37.9861 30.5761 37.9786 30.7164C37.9713 30.8568 37.1948 32.1988 36.2535 33.6987L34.542 36.4257L33.919 35.5486C33.5764 35.0662 33.171 34.6742 33.0183 34.6774C32.62 34.6859 28.2098 41.746 28.405 42.0625C28.7784 42.6676 29.2707 42.1755 31.0781 39.3906H31.0781Z" fill="#02B3E4"/>
<path d="M8.167 45.7613C5.09672 44.8988 2.53386 42.7451 1.08638 39.8112C-0.28571 36.437 -0.411107 32.804 1.01449 29.9793C2.09254 27.8516 4.09555 25.766 5.90689 24.8852C8.42574 23.6605 9.61308 23.497 16.2479 23.4618L22.4247 23.4289L22.4194 30.1347C22.4143 36.5315 22.3862 36.9194 21.8098 38.5552C20.715 41.6628 18.8378 43.688 15.6802 45.1683C13.5845 46.1507 10.4376 46.3991 8.167 45.7613ZM8.67026 39.5197V37.7335H7.14199H5.61371V39.5197V41.3058H7.14199H8.67026V39.5197ZM12.491 37.8611V34.4163H10.8353H9.17969V37.8611V41.3058H10.8353H12.491V37.8611ZM16.0569 34.5439V27.782H14.5287H13.0004V34.5439V41.3058H14.5287H16.0569V34.5439Z" fill="#789B3C"/>
<path d="M23.4436 16.5672C23.4436 13.053 23.5642 9.88116 23.7275 9.10361C24.1492 7.09486 25.1073 5.24401 26.5361 3.67791C30.0714 -0.197175 35.6525 -1.11238 40.2989 1.42103C41.7754 2.22609 44.0599 4.56211 44.8088 6.03265C48.0637 12.4241 44.8436 20.0584 37.9991 22.1775C36.5701 22.6199 35.6216 22.6787 29.9119 22.6787H23.4436V16.5672H23.4436ZM40.7865 17.1288C39.1296 12.9406 39.2555 13.1258 35.5371 9.40606L31.9659 5.83349L30.3208 7.4963L28.6756 9.15912L32.1824 12.6297C35.6168 16.0288 35.7428 16.1233 38.2903 17.2109C39.7209 17.8216 40.9757 18.3258 41.0787 18.3311C41.1817 18.3365 41.0502 17.7954 40.7865 17.1288ZM37.5111 16.2254C36.0747 15.6222 35.8637 15.0925 36.8811 14.6442C37.1955 14.5057 37.4528 14.2514 37.4528 14.0791C37.4528 13.9068 37.6839 13.6419 37.9664 13.4904C38.4266 13.2437 38.5339 13.3407 38.9968 14.4225C40.0161 16.8049 39.7269 17.1559 37.5111 16.2254ZM30.5755 4.55929C29.9372 4.1503 28.3984 4.26498 27.9733 4.75322C27.1273 5.72479 26.9625 6.32524 27.2787 7.28489L27.5791 8.19679L29.2683 6.50043C30.6424 5.12063 30.8863 4.75839 30.5755 4.55929Z" fill="#DAE145"/>
</g>
<defs>
<clipPath id="clip0">
<rect width="46.11" height="46.1133" fill="white"/>
</clipPath>
</defs>
</svg>
