<svg width="24" height="24" viewBox="0 0 24 24" fill="none" xmlns="http://www.w3.org/2000/svg">
<path fill-rule="evenodd" clip-rule="evenodd" d="M22.1009 6.84C22.1109 6.73 22.1209 6.62 22.1209 6.5C22.1209 6.38 22.1109 6.27 22.0909 6.16L22.8309 5.58C22.9009 5.53 22.9109 5.43 22.8709 5.36L22.1709 4.15C22.1309 4.07 22.0309 4.05 21.9609 4.07L21.1009 4.42C20.9209 4.28 20.7209 4.17 20.5109 4.08L20.3809 3.15C20.3609 3.06 20.2909 3 20.2009 3H18.8009C18.7109 3 18.6409 3.06 18.6309 3.15L18.5009 4.08C18.2909 4.17 18.0909 4.29 17.9109 4.42L17.0409 4.07C16.9609 4.04 16.8709 4.07 16.8309 4.15L16.1309 5.36C16.0909 5.44 16.1009 5.53 16.1709 5.58L16.9109 6.16C16.8909 6.27 16.8809 6.39 16.8809 6.5C16.8809 6.61 16.8909 6.73 16.9109 6.84L16.1709 7.42C16.1009 7.47 16.0909 7.57 16.1309 7.64L16.8309 8.85C16.8709 8.93 16.9709 8.95 17.0409 8.93L17.9109 8.58C18.0909 8.72 18.2909 8.83 18.5009 8.92L18.6309 9.85C18.6409 9.94 18.7109 10 18.8009 10H20.2009C20.2909 10 20.3609 9.94 20.3709 9.85L20.5009 8.92C20.7109 8.83 20.9109 8.71 21.0909 8.58L21.9609 8.93C22.0409 8.96 22.1309 8.93 22.1709 8.85L22.8709 7.64C22.9109 7.56 22.9009 7.47 22.8309 7.42L22.1009 6.84ZM19.5009 7.75C18.8109 7.75 18.2509 7.19 18.2509 6.5C18.2509 5.81 18.8109 5.25 19.5009 5.25C20.1909 5.25 20.7509 5.81 20.7509 6.5C20.7509 7.19 20.1909 7.75 19.5009 7.75ZM19.9209 11.68L19.4209 10.81C19.3909 10.75 19.3209 10.73 19.2709 10.75L18.6509 11C18.5209 10.9 18.3809 10.82 18.2309 10.76L18.1409 10.1C18.1209 10.04 18.0609 10 18.0009 10H17.0009C16.9409 10 16.8909 10.04 16.8809 10.11L16.7909 10.77C16.6409 10.83 16.5009 10.92 16.3709 11.01L15.7509 10.76C15.6909 10.74 15.6309 10.76 15.6009 10.82L15.1009 11.69C15.0709 11.75 15.0809 11.81 15.1309 11.85L15.6609 12.26C15.6509 12.34 15.6409 12.42 15.6409 12.5C15.6409 12.58 15.6509 12.67 15.6609 12.74L15.1309 13.15C15.0809 13.19 15.0709 13.26 15.1009 13.31L15.6009 14.18C15.6309 14.24 15.7009 14.26 15.7509 14.24L16.3709 13.99C16.5009 14.09 16.6409 14.17 16.7909 14.23L16.8809 14.89C16.8909 14.96 16.9409 15 17.0009 15H18.0009C18.0609 15 18.1209 14.96 18.1209 14.89L18.2109 14.23C18.3609 14.17 18.5009 14.08 18.6309 13.99L19.2509 14.24C19.3109 14.26 19.3709 14.24 19.4009 14.18L19.9009 13.31C19.9309 13.25 19.9209 13.19 19.8709 13.15L19.3509 12.74L19.3509 12.7399C19.3609 12.6599 19.3709 12.58 19.3709 12.5C19.3709 12.42 19.3609 12.33 19.3509 12.26L19.8809 11.85C19.9309 11.81 19.9409 11.74 19.9209 11.68ZM17.5009 13.33C17.0409 13.33 16.6709 12.95 16.6709 12.5C16.6709 12.04 17.0509 11.67 17.5009 11.67C17.9509 11.67 18.3309 12.05 18.3309 12.5C18.3309 12.96 17.9609 13.33 17.5009 13.33ZM13.3973 12.5C13.3973 12.7578 13.3823 13 13.3523 13.2344L14.8591 14.4688C15.0015 14.5781 15.039 14.7734 14.949 14.9453L13.5097 17.5391C13.4198 17.7109 13.2324 17.7734 13.0675 17.7109L11.2759 16.9609C10.9085 17.2578 10.5037 17.5078 10.0615 17.6953L9.7916 19.6797C9.76912 19.8672 9.61919 20 9.43928 20H6.56072C6.38081 20 6.23838 19.8672 6.2009 19.6797L5.93103 17.6953C5.48876 17.5078 5.09145 17.2578 4.71664 16.9609L2.92504 17.7109C2.76012 17.7656 2.57271 17.7109 2.48276 17.5391L1.04348 14.9453C0.96102 14.7891 0.998501 14.5781 1.13343 14.4688L2.65517 13.2344C2.61769 13 2.6027 12.7422 2.6027 12.5C2.6027 12.2578 2.63268 12 2.67017 11.7656L1.14843 10.5312C0.998501 10.4219 0.968516 10.2187 1.05847 10.0547L2.49026 7.46094C2.58021 7.28906 2.76762 7.22656 2.93253 7.28906L4.72414 8.03906C5.09145 7.75 5.49625 7.49219 5.93853 7.30469L6.2084 5.32031C6.23838 5.13281 6.38081 5 6.56072 5H9.43928C9.61919 5 9.76911 5.13281 9.7991 5.32031L10.069 7.30469C10.5112 7.49219 10.9085 7.74219 11.2834 8.03906L13.075 7.28906C13.2399 7.23437 13.4273 7.28906 13.5172 7.46094L14.9565 10.0547C15.039 10.2109 15.0015 10.4219 14.8666 10.5312L13.3448 11.7656C13.3823 12 13.3973 12.25 13.3973 12.5ZM5.30135 12.5C5.30135 14.0469 6.51574 15.3125 8 15.3125C9.48426 15.3125 10.6987 14.0469 10.6987 12.5C10.6987 10.9531 9.48426 9.6875 8 9.6875C6.51574 9.6875 5.30135 10.9531 5.30135 12.5Z" fill="black"/>
</svg>
