<svg id="Capa_1" data-name="Capa 1" xmlns="http://www.w3.org/2000/svg" viewBox="0 0 24 19.14"><defs><style>.cls-1{fill:#070308;}</style></defs><title>cogs</title><path class="cls-1" d="M19.21,9.84l-.31.54a.46.46,0,0,1-.57.2,4.14,4.14,0,0,1-1.2-.7A.47.47,0,0,1,17,9.29l.31-.54a3.24,3.24,0,0,1-.6-1h-.62a.46.46,0,0,1-.46-.39,4.23,4.23,0,0,1,0-1.39.47.47,0,0,1,.46-.39h.62a3.24,3.24,0,0,1,.6-1L17,4a.46.46,0,0,1,.11-.59,4.19,4.19,0,0,1,1.2-.7.46.46,0,0,1,.57.2l.31.54a3.33,3.33,0,0,1,1.19,0l.31-.54a.46.46,0,0,1,.57-.2,4.14,4.14,0,0,1,1.2.7.47.47,0,0,1,.11.59l-.31.54a3.24,3.24,0,0,1,.6,1h.62a.46.46,0,0,1,.46.39,4.23,4.23,0,0,1,0,1.39.47.47,0,0,1-.46.39h-.62a3.24,3.24,0,0,1-.6,1l.31.54a.46.46,0,0,1-.11.59,4.19,4.19,0,0,1-1.2.7.46.46,0,0,1-.57-.2l-.31-.54A3.33,3.33,0,0,1,19.21,9.84Zm-.39-2.21a1.4,1.4,0,0,0,2-2A1.4,1.4,0,0,0,18.81,7.64Zm-4.32,5.77,1.26.63a.9.9,0,0,1,.39,1.09,8.85,8.85,0,0,1-1.6,2.47.9.9,0,0,1-1.14.2l-1.09-.63a6.44,6.44,0,0,1-2.06,1.19v1.26a.9.9,0,0,1-.74.89,8.43,8.43,0,0,1-2.85,0,.9.9,0,0,1-.75-.89V18.35a6.51,6.51,0,0,1-2.06-1.19l-1.09.63a.9.9,0,0,1-1.14-.2A8.84,8.84,0,0,1,.06,15.13.9.9,0,0,1,.45,14l1.25-.63A6.5,6.5,0,0,1,1.7,11L.45,10.4A.89.89,0,0,1,.06,9.31,8.81,8.81,0,0,1,1.64,6.84a.9.9,0,0,1,1.14-.2l1.09.63A6.44,6.44,0,0,1,5.93,6.08V4.82a.89.89,0,0,1,.74-.88,8.55,8.55,0,0,1,2.85,0,.9.9,0,0,1,.75.89V6.08a6.51,6.51,0,0,1,2.06,1.19l1.09-.63a.9.9,0,0,1,1.14.2A8.79,8.79,0,0,1,16.13,9.3a.9.9,0,0,1-.38,1.09L14.49,11A6.52,6.52,0,0,1,14.49,13.41Zm-4.41.79a2.8,2.8,0,0,0-4-4A2.8,2.8,0,0,0,10.08,14.2Zm9.13,6.85-.31.54a.46.46,0,0,1-.57.2,4.14,4.14,0,0,1-1.2-.7A.47.47,0,0,1,17,20.5l.31-.54a3.24,3.24,0,0,1-.6-1h-.62a.46.46,0,0,1-.46-.39,4.23,4.23,0,0,1,0-1.39.47.47,0,0,1,.46-.39h.62a3.24,3.24,0,0,1,.6-1L17,15.21a.46.46,0,0,1,.11-.59,4.19,4.19,0,0,1,1.2-.7.46.46,0,0,1,.57.2l.31.54a3.33,3.33,0,0,1,1.19,0l.31-.54a.46.46,0,0,1,.57-.2,4.14,4.14,0,0,1,1.2.7.47.47,0,0,1,.11.59l-.31.54a3.24,3.24,0,0,1,.6,1h.62a.46.46,0,0,1,.46.39,4.23,4.23,0,0,1,0,1.39.47.47,0,0,1-.46.39h-.62a3.24,3.24,0,0,1-.6,1l.31.54a.46.46,0,0,1-.11.59,4.19,4.19,0,0,1-1.2.7.46.46,0,0,1-.57-.2l-.31-.54A3.33,3.33,0,0,1,19.21,21.05Zm-.39-2.21a1.4,1.4,0,0,0,2-2,1.4,1.4,0,0,0-2,2Z" transform="translate(0 -2.68)"/></svg>