<svg id="Capa_1" data-name="Capa 1" xmlns="http://www.w3.org/2000/svg" viewBox="0 0 24 24" width="24" height="24"><defs><style>.cls-1{fill:#040006;}.cls-2{fill:#211915;}</style></defs><title>hash</title><line class="cls-1" x1="6.62" y1="0.71" x2="4.34" y2="20.15"/><path class="cls-2" d="M9.38,2.28,7.1,21.72c-.11,1,1.39.95,1.5,0L10.88,2.28c.11-1-1.39-.95-1.5,0Z" transform="translate(-3.51 -1.57)"/><line class="cls-1" x1="12.65" y1="0.71" x2="10.36" y2="20.15"/><path class="cls-2" d="M15.4,2.28,13.12,21.72c-.11,1,1.39.95,1.5,0L16.9,2.28c.11-1-1.39-.95-1.5,0Z" transform="translate(-3.51 -1.57)"/><line class="cls-1" x1="16.26" y1="7.33" x2="0.72" y2="7.33"/><path class="cls-2" d="M19.77,8.15H4.23a.75.75,0,0,0,0,1.5H19.77a.75.75,0,0,0,0-1.5Z" transform="translate(-3.51 -1.57)"/><line class="cls-1" x1="16.26" y1="13.08" x2="0.72" y2="13.08"/><path class="cls-2" d="M19.77,13.9H4.23a.75.75,0,0,0,0,1.5H19.77a.75.75,0,0,0,0-1.5Z" transform="translate(-3.51 -1.57)"/></svg>