<svg width="24" height="20.000000000000004" xmlns="http://www.w3.org/2000/svg">
 <!-- Created with UXWing SVG Editor - https://uxwing.com/svg-icon-editor/ -->

 <g>
  <title>background</title>
  <rect fill="none" id="canvas_background" height="22" width="26" y="-1" x="-1"/>
  <g display="none" overflow="visible" y="0" x="0" height="100%" width="100%" id="canvasGrid">
   <rect fill="url(#gridpattern)" stroke-width="0" y="0" x="0" height="100%" width="100%"/>
  </g>
 </g>
 <g>
  <title>Layer 1</title>
  <g stroke="null" id="svg_7">
   <g stroke="null" transform="matrix(0.15061872542447596,0,0,0.15061872542447596,-0.3604191538928916,-0.5616513000052521) " id="svg_5">
    <path stroke="null" id="svg_6" d="m131.829524,80.855875c0,-3.19 2.59,-5.78 5.78,-5.78c3.19,0 5.78,2.59 5.78,5.78l0,33.19c0,4.71 -1.92,8.99 -5.02,12.09c-3.1,3.1 -7.38,5.02 -12.09,5.02l-87.94,0c-4.71,0 -8.99,-1.92 -12.09,-5.02c-3.1,-3.1 -5.02,-7.38 -5.02,-12.09l0,-88.58c0,-4.71 1.92,-8.99 5.02,-12.09c3.1,-3.1 7.38,-5.02 12.09,-5.02l32.98,0c3.19,0 5.78,2.59 5.78,5.78c0,3.19 -2.59,5.78 -5.78,5.78l-32.98,0c-1.52,0 -2.9,0.63 -3.91,1.63c-1.01,1.01 -1.63,2.39 -1.63,3.91l0,88.58c0,1.52 0.63,2.9 1.63,3.91c1.01,1.01 2.39,1.63 3.91,1.63l87.95,0c1.52,0 2.9,-0.63 3.91,-1.63s1.63,-2.39 1.63,-3.91l0,-33.18l0,0zm1.82,-55.12l-58.41,59.14c-2.23,2.27 -5.89,2.3 -8.16,0.07c-2.27,-2.23 -2.3,-5.89 -0.07,-8.16l56.16,-56.87l-23.38,0c-3.19,0 -5.78,-2.59 -5.78,-5.78c0,-3.19 2.59,-5.78 5.78,-5.78l26.5,0c5.12,0 11.72,-0.87 15.65,3.1c2.48,2.51 1.93,22.52 1.61,34.11c-0.08,3 -0.15,5.29 -0.15,6.93c0,3.19 -2.59,5.78 -5.78,5.78c-3.19,0 -5.78,-2.59 -5.78,-5.78c0,-0.31 0.08,-3.32 0.19,-7.24c0.16,-6.04 1.13,-14.04 1.62,-19.52l0,0z"/>
   </g>
  </g>
 </g>
</svg>